<svg viewBox="0 0 70 29" fill="#0051BB" xmlns="http://www.w3.org/2000/svg">
  <path
    d="M57.9723 10.8959C57.4702 10.2019 56.6824 9.76784 55.6943 9.68489C55.6783 9.68489 55.6275 9.67936 55.5741 9.67936C55.4993 9.6766 55.4459 9.60471 55.4619 9.53006L57.0296 2.02638C57.0536 1.91302 57.1498 1.83008 57.2646 1.83008H63.4336C63.5431 1.83008 63.6393 1.90749 63.666 2.01808L65.4553 9.52177C65.474 9.59918 65.4152 9.6766 65.3378 9.6766C65.3004 9.6766 65.2683 9.6766 65.2523 9.6766C64.59 9.71807 64.0826 10.0554 63.7835 10.3153C63.479 10.036 62.9556 9.67383 62.2746 9.67936C61.3773 9.68489 60.5948 10.1024 60.0954 10.7521C60.034 10.8323 59.9085 10.8074 59.8844 10.7051L58.9951 6.97538L58.1859 10.8516C58.1646 10.9567 58.0337 10.9844 57.9723 10.8986V10.8959ZM67.9709 20.0612L66.3312 13.1934C66.7719 12.9501 67.0736 12.4746 67.0816 11.9216C67.0656 11.1862 66.5422 10.4563 65.3885 10.4563C64.606 10.4563 64.0746 11.1115 64.0692 11.1171L63.7648 11.4986L63.4737 11.1088C63.4737 11.1088 62.9796 10.4646 62.2853 10.4646H62.2773C61.1583 10.4729 60.3117 11.2968 60.285 12.3861L60.8085 14.5814H57.4008L57.804 12.6488C57.6919 11.3576 56.8533 10.542 55.5447 10.4646C55.1922 10.4425 54.8717 10.5641 54.6234 10.7106C54.2629 10.9761 54.0278 11.4101 54.0278 11.905C54.0278 12.4331 54.2976 12.8948 54.7008 13.152L53.2614 20.0419C53.2 20.0363 53.1385 20.0308 53.0771 20.0308C52.1638 20.0308 51.4214 20.7552 51.4214 21.651C51.4214 22.5468 52.1638 23.2712 53.0771 23.2712C53.7955 23.2712 54.4044 22.8233 54.6341 22.1984C54.8637 22.8233 55.4726 23.2712 56.191 23.2712C57.1044 23.2712 57.8468 22.5468 57.8468 21.651C57.8468 20.7552 57.1444 20.0723 56.2631 20.0363L56.8346 17.3102H61.4601L62.1384 20.158C61.5375 20.4013 61.1156 20.9791 61.1156 21.6537C61.1156 22.5468 61.858 23.2739 62.7713 23.2739C62.8808 23.2739 62.985 23.2629 63.0865 23.2435C64.0772 23.1882 64.7102 22.7071 65.3351 22.3007C65.8505 22.6352 66.3713 23.0196 67.095 23.1771C67.2686 23.238 67.4555 23.2739 67.6531 23.2739C68.5665 23.2739 69.3089 22.5495 69.3089 21.6537C69.3089 20.863 68.7294 20.2077 67.9656 20.064L67.9709 20.0612Z" />
  <path
    d="M51.2718 16.8659C51.2345 20.3993 48.3529 23.2526 44.7289 23.2526C41.1049 23.2526 38.0605 20.3606 38.0605 16.7968V16.6226V12.268C38.1433 11.2285 38.9738 10.4626 40.0581 10.4626C40.5441 10.4626 41.1156 10.9547 41.2946 11.1428L41.5937 11.4607L41.8634 11.1179C41.8634 11.1179 42.4028 10.4571 43.1907 10.4571C43.9785 10.4571 44.7716 10.8635 44.8838 11.7482C44.8892 11.798 44.8918 11.8478 44.8918 11.8975C44.8918 12.6081 44.4031 13.1998 43.7542 13.3325C43.7488 14.314 43.7435 16.9903 43.7435 16.9903C43.7755 18.4805 44.4859 19.7745 46.1203 19.7745C47.5304 19.7745 48.206 18.6575 48.3209 17.3055L48.3075 13.2661C47.7734 13.056 47.3915 12.5224 47.3915 11.8975C47.3915 11.4579 47.5784 11.0681 47.8722 10.7999C48.1099 10.623 48.4597 10.4433 48.8817 10.4654C50.046 10.5234 51.2211 11.2229 51.2425 12.6551L51.2585 15.2208L51.2692 16.8687L51.2718 16.8659ZM43.7408 1.82812H36.5329C36.4234 1.82812 36.3326 1.91936 36.3326 2.03549V3.40959C36.3326 3.52295 36.4207 3.61695 36.5329 3.61695H37.0617C37.6118 3.61695 38.0578 4.07868 38.0578 4.64823V10.0645C38.0578 10.2359 38.2447 10.3299 38.3756 10.2276C38.8376 9.87924 39.4171 9.67188 40.0554 9.67188C40.6937 9.67188 41.2251 10.0507 41.5536 10.3244C41.8714 10.0451 42.4402 9.66358 43.188 9.66358C43.3803 9.66358 43.5619 9.68294 43.7381 9.71611V4.64823C43.7381 4.07868 44.1841 3.61695 44.7343 3.61695H45.263C45.3725 3.61695 45.4633 3.52572 45.4633 3.40959V2.03549C45.4633 1.92213 45.3752 1.82812 45.263 1.82812H43.7355H43.7408ZM52.9249 2.03549C52.9249 1.92213 52.8368 1.82812 52.7246 1.82812H46.7479C46.6384 1.82812 46.5476 1.91936 46.5476 2.03549V3.40959C46.5476 3.52295 46.6357 3.61695 46.7479 3.61695H47.2793C47.8295 3.61695 48.2755 4.07591 48.2755 4.64546L48.2915 9.73823C48.4838 9.69123 48.6921 9.66635 48.9164 9.67741C49.8778 9.72441 50.6843 10.0977 51.2318 10.6838L51.2078 4.65376C51.2078 4.08144 51.6537 3.61695 52.2039 3.61695H52.722C52.8315 3.61695 52.9223 3.52572 52.9223 3.40959V2.03549H52.9249Z" />
  <path
    d="M18.7415 9.97546C19.3717 4.73615 22.1839 0.901367 27.1031 0.901367C32.0223 0.901367 34.8317 4.73062 35.462 9.9644C35.4834 10.1413 35.2964 10.2575 35.1522 10.1607C34.6822 9.84828 34.1053 9.66304 33.4751 9.66304C32.8448 9.66304 32.2386 10.0501 31.8968 10.3238C31.5656 10.0446 30.9647 9.65751 30.1769 9.65751C30.1742 9.65751 30.1689 9.65751 30.1662 9.65751C30.038 9.65751 29.9285 9.55521 29.9232 9.4225C29.7496 6.20426 29.1354 3.90671 27.1244 3.90671C25.1135 3.90671 24.5073 6.20426 24.3364 9.4225C24.3283 9.55521 24.2215 9.66027 24.0933 9.65751C24.0773 9.65751 24.064 9.65751 24.0479 9.65751C23.2574 9.65751 22.6566 10.0446 22.3281 10.3238C21.9889 10.0501 21.3907 9.66304 20.7498 9.66304C20.1088 9.66304 19.5293 9.84828 19.0566 10.169C18.9124 10.2658 18.7255 10.1496 18.7468 9.97269L18.7415 9.97546ZM34.0866 18.0072C34.2602 18.0929 34.4285 18.1869 34.5914 18.2892C35.2483 16.5695 35.5848 14.5567 35.5955 12.4057C35.5768 11.3026 34.6715 10.4731 33.4724 10.4731C32.9516 10.4731 32.3454 10.968 32.1558 11.1588L31.8567 11.4574L31.587 11.1311C31.587 11.1311 31.0155 10.4676 30.1742 10.4676C29.333 10.4676 28.3663 10.9321 28.3663 11.9551H28.3529C28.3823 12.7375 29.0019 13.3623 29.7656 13.3623C29.8377 13.3623 29.9072 13.3541 29.9766 13.3458C29.9579 14.8885 29.8858 16.3013 29.6829 17.4681C30.8686 17.117 32.3828 17.1612 34.0866 18.0072ZM30.663 20.9047C30.0327 20.2992 29.2289 20.0836 28.6894 20.0089C28.2968 20.4596 27.7841 20.7084 27.1218 20.7084C24.7263 20.7084 24.3257 17.4985 24.2803 13.3513C24.331 13.3568 24.3844 13.3596 24.4378 13.3596C25.2123 13.3596 25.8399 12.7154 25.8532 11.9164C25.8319 10.9183 24.9079 10.4648 24.0479 10.4648C23.188 10.4648 22.6405 11.1229 22.6352 11.1311L22.3628 11.4519L22.0664 11.156C21.8767 10.9653 21.2705 10.4731 20.7498 10.4731C19.5373 10.4731 18.624 11.3192 18.624 12.4389H18.6106C18.648 18.7731 21.5055 23.8852 27.1057 23.8852C28.9725 23.8852 30.5374 23.3129 31.7926 22.3148C31.3466 21.7093 30.9621 21.1895 30.6656 20.9047H30.663ZM48.8256 24.6096C47.8562 25.1294 44.809 26.2436 41.2812 24.9884C38.186 23.8852 36.573 19.9758 33.8089 18.6017C30.8018 17.1059 28.8229 18.4302 28.206 19.0744C28.1232 19.1601 28.1793 19.3094 28.2968 19.3122C28.8603 19.3316 30.1262 19.4892 31.0929 20.4209C32.6632 21.9332 35.5555 28.0849 41.3213 28.0905C45.8185 28.096 48.5505 25.7349 48.9912 24.781C49.0419 24.6704 48.9271 24.5543 48.8202 24.6123L48.8256 24.6096Z" />
  <path
    d="M7.38883 10.8959C6.88676 10.2019 6.09894 9.76784 5.11082 9.68489C5.0948 9.68489 5.04406 9.67936 4.99064 9.67936C4.91587 9.6766 4.86246 9.60471 4.87848 9.53006L6.44611 2.02638C6.47015 1.91302 6.56629 1.83008 6.68112 1.83008H12.8502C12.9597 1.83008 13.0558 1.90749 13.0825 2.01808L14.8718 9.52177C14.8905 9.59918 14.8317 9.6766 14.7543 9.6766C14.7169 9.6766 14.6849 9.6766 14.6688 9.6766C14.0065 9.71807 13.4991 10.0554 13.2 10.3153C12.8956 10.036 12.3721 9.67383 11.6911 9.67936C10.7938 9.68489 10.0113 10.1024 9.51194 10.7521C9.45051 10.8323 9.325 10.8074 9.30096 10.7051L8.41166 6.97538L7.60247 10.8516C7.58111 10.9567 7.45025 10.9844 7.38883 10.8986V10.8959ZM17.3875 20.0612L15.7477 13.1934C16.1884 12.9501 16.4902 12.4746 16.4982 11.9216C16.4822 11.1862 15.9587 10.4563 14.805 10.4563C14.0225 10.4563 13.4911 11.1115 13.4858 11.1171L13.1813 11.4986L12.8902 11.1088C12.8902 11.1088 12.3962 10.4646 11.7018 10.4646H11.6938C10.5748 10.4729 9.72825 11.2968 9.70155 12.3861L10.225 14.5814H6.81732L7.22058 12.6488C7.10841 11.3576 6.26985 10.542 4.96127 10.4646C4.60875 10.4425 4.28828 10.5641 4.03992 10.7106C3.67939 10.9761 3.44438 11.4101 3.44438 11.905C3.44438 12.4331 3.71411 12.8948 4.11736 13.152L2.67792 20.0419C2.6165 20.0363 2.55507 20.0308 2.49365 20.0308C1.58031 20.0308 0.837891 20.7552 0.837891 21.651C0.837891 22.5468 1.58031 23.2712 2.49365 23.2712C3.21204 23.2712 3.82093 22.8233 4.0506 22.1984C4.28027 22.8233 4.88916 23.2712 5.60755 23.2712C6.52089 23.2712 7.26331 22.5468 7.26331 21.651C7.26331 20.7552 6.56095 20.0723 5.67965 20.0363L6.25116 17.3102H10.8766L11.5549 20.158C10.9541 20.4013 10.5321 20.9791 10.5321 21.6537C10.5321 22.5468 11.2745 23.2739 12.1879 23.2739C12.2974 23.2739 12.4015 23.2629 12.503 23.2435C13.4938 23.1882 14.1267 22.7071 14.7516 22.3007C15.267 22.6352 15.7878 23.0196 16.5115 23.1771C16.6851 23.238 16.8721 23.2739 17.0697 23.2739C17.983 23.2739 18.7254 22.5495 18.7254 21.6537C18.7254 20.863 18.1459 20.2077 17.3821 20.064L17.3875 20.0612Z" />
  <path
    d="M66.8814 2.17096H66.187V3.56166H65.8238V2.17096H65.1321V1.82812H66.8814V2.17096ZM69.3169 1.82812V3.56166H68.9537V2.3562L68.2567 3.28518H68.238L67.541 2.3562V3.56166H67.1885V1.82812H67.5837L68.2567 2.74328L68.9297 1.82812H69.3169Z" />
</svg>
